<?xml version="1.0" encoding="UTF-8"?>
<svg id="Layer_2" data-name="Layer 2" xmlns="http://www.w3.org/2000/svg" viewBox="0 0 69 60">
  <defs>
    <style>
      .cls-1 {
        fill: #0e8bff;
        opacity: .2;
      }

      .cls-1, .cls-2, .cls-3, .cls-4, .cls-5, .cls-6, .cls-7 {
        stroke-width: 0px;
      }

      .cls-1, .cls-7 {
        isolation: isolate;
      }

      .cls-3 {
        fill: #56d581;
      }

      .cls-4 {
        fill: #ff5a5a;
      }

      .cls-5, .cls-7 {
        fill: #685043;
      }

      .cls-6 {
        fill: #9a3434;
      }

      .cls-7 {
        opacity: .5;
      }
    </style>
  </defs>
  <g id="Layer_1-2" data-name="Layer 1">
    <g id="green_darner" data-name="green darner">
      <path id="Rectangle_956" data-name="Rectangle 956" class="cls-3" d="m60,33h-15v3h15v-3Z"/>
      <path id="Rectangle_947" data-name="Rectangle 947" class="cls-6" d="m66,30h-6v6h6v-6Z"/>
      <path id="Rectangle_944" data-name="Rectangle 944" class="cls-3" d="m39,39h-9v3h9v-3Z"/>
      <path id="Rectangle_958" data-name="Rectangle 958" class="cls-3" d="m24,39h-9v3h9v-3Z"/>
      <path id="Rectangle_945" data-name="Rectangle 945" class="cls-2" d="m9,39H3v6h6v-6Z"/>
      <path id="Rectangle_962" data-name="Rectangle 962" class="cls-2" d="m3,42H0v3h3v-3Z"/>
      <path id="Rectangle_963" data-name="Rectangle 963" class="cls-2" d="m15,42h-6v-3h6v3Z"/>
      <path id="Rectangle_948" data-name="Rectangle 948" class="cls-5" d="m63,45h-3v9h3v-9Z"/>
      <path id="Rectangle_952" data-name="Rectangle 952" class="cls-7" d="m66,45h-3v6h3v-6Z"/>
      <path id="Rectangle_954" data-name="Rectangle 954" class="cls-7" d="m54,42h-3v9h3v-9Z"/>
      <path id="Rectangle_949" data-name="Rectangle 949" class="cls-5" d="m66,51h-3v9h3v-9Z"/>
      <path id="Rectangle_953" data-name="Rectangle 953" class="cls-7" d="m69,48h-3v9h3v-9Z"/>
      <path id="Rectangle_955" data-name="Rectangle 955" class="cls-7" d="m57,51h-3v6h3v-6Z"/>
      <path id="Rectangle_950" data-name="Rectangle 950" class="cls-5" d="m51,45h-3v9h3v-9Z"/>
      <path id="Rectangle_951" data-name="Rectangle 951" class="cls-5" d="m54,51h-3v9h3v-9Z"/>
      <path id="Rectangle_943" data-name="Rectangle 943" class="cls-2" d="m63,36h-24v9h24v-9Z"/>
      <path id="Rectangle_959" data-name="Rectangle 959" class="cls-3" d="m63,36h-15v3h15v-3Z"/>
      <path id="Rectangle_960" data-name="Rectangle 960" class="cls-3" d="m66,39h-12v3h12v-3Z"/>
      <path id="Rectangle_961" data-name="Rectangle 961" class="cls-2" d="m57,45h-12v3h12v-3Z"/>
      <g id="Group_101" data-name="Group 101">
        <path id="Rectangle_964" data-name="Rectangle 964" class="cls-1" d="m57,24h-3v9h3v-9Z"/>
        <path id="Rectangle_965" data-name="Rectangle 965" class="cls-1" d="m54,15h-3v9h3v-9Z"/>
        <path id="Rectangle_966" data-name="Rectangle 966" class="cls-1" d="m51,9h-3v6h3v-6Z"/>
        <path id="Rectangle_967" data-name="Rectangle 967" class="cls-1" d="m48,6h-3v3h3v-3Z"/>
        <path id="Rectangle_968" data-name="Rectangle 968" class="cls-1" d="m45,3h-6v3h6v-3Z"/>
        <path id="Rectangle_969" data-name="Rectangle 969" class="cls-1" d="m39,0h-9v3h9V0Z"/>
        <path id="Rectangle_971" data-name="Rectangle 971" class="cls-1" d="m30,3h-3v6h3V3Z"/>
        <path id="Rectangle_972" data-name="Rectangle 972" class="cls-1" d="m33,9h-3v3h3v-3Z"/>
        <path id="Rectangle_973" data-name="Rectangle 973" class="cls-1" d="m36,12h-3v3h3v-3Z"/>
        <path id="Rectangle_974" data-name="Rectangle 974" class="cls-1" d="m39,15h-3v3h3v-3Z"/>
        <path id="Rectangle_975" data-name="Rectangle 975" class="cls-1" d="m42,18h-3v3h3v-3Z"/>
        <path id="Rectangle_976" data-name="Rectangle 976" class="cls-1" d="m45,21h-3v6h3v-6Z"/>
        <path id="Rectangle_977" data-name="Rectangle 977" class="cls-1" d="m51,30h-3v3h3v-3Z"/>
        <path id="Rectangle_978" data-name="Rectangle 978" class="cls-1" d="m48,27h-3v3h3v-3Z"/>
      </g>
      <g id="Group_102" data-name="Group 102">
        <path id="Rectangle_979" data-name="Rectangle 979" class="cls-1" d="m42,30h-3v3h3v-3Z"/>
        <path id="Rectangle_991" data-name="Rectangle 991" class="cls-1" d="m45,33h-3v3h3v-3Z"/>
        <path id="Rectangle_980" data-name="Rectangle 980" class="cls-1" d="m39,24h-3v6h3v-6Z"/>
        <path id="Rectangle_981" data-name="Rectangle 981" class="cls-1" d="m36,21h-3v3h3v-3Z"/>
        <path id="Rectangle_982" data-name="Rectangle 982" class="cls-1" d="m33,18h-3v3h3v-3Z"/>
        <path id="Rectangle_983" data-name="Rectangle 983" class="cls-1" d="m30,15h-9v3h9v-3Z"/>
        <path id="Rectangle_985" data-name="Rectangle 985" class="cls-1" d="m21,18h-3v6h3v-6Z"/>
        <path id="Rectangle_986" data-name="Rectangle 986" class="cls-1" d="m27,24h-6v3h6v-3Z"/>
        <path id="Rectangle_987" data-name="Rectangle 987" class="cls-1" d="m30,27h-3v3h3v-3Z"/>
        <path id="Rectangle_988" data-name="Rectangle 988" class="cls-1" d="m33,30h-3v3h3v-3Z"/>
        <path id="Rectangle_989" data-name="Rectangle 989" class="cls-1" d="m36,33h-3v3h3v-3Z"/>
        <path id="Rectangle_990" data-name="Rectangle 990" class="cls-1" d="m39,36h-3v3h3v-3Z"/>
      </g>
      <path id="Rectangle_957" data-name="Rectangle 957" class="cls-2" d="m33,36h-12v3h12v-3Z"/>
      <path id="Rectangle_946" data-name="Rectangle 946" class="cls-4" d="m69,33h-6v6h6v-6Z"/>
    </g>
  </g>
</svg>