<?xml version="1.0" encoding="UTF-8"?>
<svg id="Layer_2" data-name="Layer 2" xmlns="http://www.w3.org/2000/svg" viewBox="0 0 230 240">
  <defs>
    <style>
      .cls-1 {
        fill: #258847;
      }

      .cls-1, .cls-2, .cls-3, .cls-4, .cls-5, .cls-6, .cls-7, .cls-8, .cls-9 {
        stroke-width: 0px;
      }

      .cls-2 {
        fill: #d796ff;
      }

      .cls-3 {
        fill: #a30eff;
      }

      .cls-4 {
        fill: #ff8b8b;
      }

      .cls-5 {
        fill: #ff7a00;
      }

      .cls-6 {
        fill: #ff5a5a;
      }

      .cls-7 {
        fill: #9a3434;
      }

      .cls-8 {
        fill: #ffe927;
      }

      .cls-9 {
        fill: #ffcea0;
      }
    </style>
  </defs>
  <g id="Coral_Reef" data-name="Coral Reef">
    <g id="tube_coral" data-name="tube coral">
      <g id="coral">
        <path id="Rectangle_186" data-name="Rectangle 186" class="cls-6" d="M80,200h70v40h-70v-40Z"/>
        <path id="Rectangle_220" data-name="Rectangle 220" class="cls-6" d="M70,210h10v30h-10v-30Z"/>
        <path id="Rectangle_221" data-name="Rectangle 221" class="cls-6" d="M60,230h10v10h-10v-10Z"/>
        <path id="Rectangle_219" data-name="Rectangle 219" class="cls-6" d="M150,220h10v20h-10v-20Z"/>
        <path id="Rectangle_187" data-name="Rectangle 187" class="cls-6" d="M130,110h10v90h-10v-90Z"/>
        <path id="Rectangle_217" data-name="Rectangle 217" class="cls-6" d="M90,130h20v70h-20v-70Z"/>
        <path id="Rectangle_218" data-name="Rectangle 218" class="cls-4" d="M120,20h10v90h-10V20Z"/>
        <path id="Rectangle_222" data-name="Rectangle 222" class="cls-4" d="M110,10h10v110h-10V10Z"/>
        <path id="Rectangle_264" data-name="Rectangle 264" class="cls-6" d="M120,110h10v90h-10v-90Z"/>
        <path id="Rectangle_265" data-name="Rectangle 265" class="cls-6" d="M110,120h10v90h-10v-90Z"/>
        <path id="Rectangle_226" data-name="Rectangle 226" class="cls-6" d="M100,110h10v20h-10v-20Z"/>
        <path id="Rectangle_223" data-name="Rectangle 223" class="cls-4" d="M100,10h10v60h-10V10Z"/>
        <path id="Rectangle_224" data-name="Rectangle 224" class="cls-4" d="M90,10h10v50h-10V10Z"/>
        <path id="Rectangle_225" data-name="Rectangle 225" class="cls-4" d="M80,20h10v30h-10v-30Z"/>
        <path id="Rectangle_203" data-name="Rectangle 203" class="cls-6" d="M60,90h10v90h-10v-90Z"/>
        <path id="Rectangle_204" data-name="Rectangle 204" class="cls-6" d="M70,110h10v80h-10v-80Z"/>
        <path id="Rectangle_205" data-name="Rectangle 205" class="cls-6" d="M80,120h10v80h-10v-80Z"/>
        <path id="Rectangle_189" data-name="Rectangle 189" class="cls-6" d="M40,70h10v70h-10v-70Z"/>
        <path id="Rectangle_230" data-name="Rectangle 230" class="cls-6" d="M50,70h10v90h-10v-90Z"/>
        <path id="Rectangle_206" data-name="Rectangle 206" class="cls-6" d="M30,70h10v50h-10v-50Z"/>
        <path id="Rectangle_207" data-name="Rectangle 207" class="cls-6" d="M20,70h10v50h-10v-50Z"/>
        <path id="Rectangle_208" data-name="Rectangle 208" class="cls-6" d="M10,70h10v40h-10v-40Z"/>
        <path id="Rectangle_209" data-name="Rectangle 209" class="cls-6" d="M0,70h10v30H0v-30Z"/>
        <path id="Rectangle_210" data-name="Rectangle 210" class="cls-6" d="M10,60h40v10H10v-10Z"/>
        <path id="Rectangle_188" data-name="Rectangle 188" class="cls-6" d="M150,60h10v90h-10V60Z"/>
        <path id="Rectangle_212" data-name="Rectangle 212" class="cls-6" d="M140,80h10v80h-10v-80Z"/>
        <path id="Rectangle_201" data-name="Rectangle 201" class="cls-4" d="M130,30h10v80h-10V30Z"/>
        <path id="Rectangle_190" data-name="Rectangle 190" class="cls-6" d="M180,0h10v90h-10V0Z"/>
        <path id="Rectangle_193" data-name="Rectangle 193" class="cls-6" d="M170,10h10v90h-10V10Z"/>
        <path id="Rectangle_211" data-name="Rectangle 211" class="cls-6" d="M160,40h10v80h-10V40Z"/>
        <path id="Rectangle_191" data-name="Rectangle 191" class="cls-6" d="M190,0h10v80h-10V0Z"/>
        <path id="Rectangle_196" data-name="Rectangle 196" class="cls-6" d="M200,0h10v80h-10V0Z"/>
        <path id="Rectangle_192" data-name="Rectangle 192" class="cls-6" d="M210,0h10v70h-10V0Z"/>
        <path id="Rectangle_197" data-name="Rectangle 197" class="cls-6" d="M220,10h10v40h-10V10Z"/>
        <path id="Rectangle_194" data-name="Rectangle 194" class="cls-7" d="M180,20h40v10h-40v-10Z"/>
        <path id="Rectangle_200" data-name="Rectangle 200" class="cls-7" d="M200,30h20v10h-20v-10Z"/>
        <path id="Rectangle_195" data-name="Rectangle 195" class="cls-7" d="M190,10h20v10h-20v-10Z"/>
        <path id="Rectangle_214" data-name="Rectangle 214" class="cls-7" d="M10,80h40v10H10v-10Z"/>
        <path id="Rectangle_216" data-name="Rectangle 216" class="cls-7" d="M20,90h30v10h-30v-10Z"/>
        <path id="Rectangle_215" data-name="Rectangle 215" class="cls-7" d="M20,70h20v10h-20v-10Z"/>
        <path id="Rectangle_227" data-name="Rectangle 227" class="cls-7" d="M100,20h10v10h-10v-10Z"/>
        <path id="Rectangle_228" data-name="Rectangle 228" class="cls-7" d="M90,30h30v10h-30v-10Z"/>
        <path id="Rectangle_229" data-name="Rectangle 229" class="cls-7" d="M110,40h20v10h-20v-10Z"/>
        <path id="Rectangle_231" data-name="Rectangle 231" class="cls-4" d="M80,190h10v30h-10v-30Z"/>
        <path id="Rectangle_243" data-name="Rectangle 243" class="cls-4" d="M150,220h10v20h-10v-20Z"/>
        <path id="Rectangle_244" data-name="Rectangle 244" class="cls-4" d="M140,200h10v30h-10v-30Z"/>
        <path id="Rectangle_245" data-name="Rectangle 245" class="cls-4" d="M130,160h10v50h-10v-50Z"/>
        <path id="Rectangle_246" data-name="Rectangle 246" class="cls-4" d="M150,120h10v30h-10v-30Z"/>
        <path id="Rectangle_247" data-name="Rectangle 247" class="cls-4" d="M160,100h10v20h-10v-20Z"/>
        <path id="Rectangle_248" data-name="Rectangle 248" class="cls-4" d="M170,90h10v10h-10v-10Z"/>
        <path id="Rectangle_249" data-name="Rectangle 249" class="cls-4" d="M180,80h10v10h-10v-10Z"/>
        <path id="Rectangle_250" data-name="Rectangle 250" class="cls-4" d="M190,70h20v10h-20v-10Z"/>
        <path id="Rectangle_252" data-name="Rectangle 252" class="cls-4" d="M210,60h10v10h-10v-10Z"/>
        <path id="Rectangle_251" data-name="Rectangle 251" class="cls-4" d="M140,150h10v10h-10v-10Z"/>
        <path id="Rectangle_239" data-name="Rectangle 239" class="cls-4" d="M100,110h10v20h-10v-20Z"/>
        <path id="Rectangle_233" data-name="Rectangle 233" class="cls-4" d="M70,180h10v10h-10v-10Z"/>
        <path id="Rectangle_234" data-name="Rectangle 234" class="cls-4" d="M60,160h10v20h-10v-20Z"/>
        <path id="Rectangle_235" data-name="Rectangle 235" class="cls-4" d="M50,140h10v20h-10v-20Z"/>
        <path id="Rectangle_236" data-name="Rectangle 236" class="cls-4" d="M40,120h10v20h-10v-20Z"/>
        <path id="Rectangle_238" data-name="Rectangle 238" class="cls-4" d="M20,110h20v10h-20v-10Z"/>
        <path id="Rectangle_232" data-name="Rectangle 232" class="cls-4" d="M70,210h10v30h-10v-30Z"/>
        <path id="Rectangle_237" data-name="Rectangle 237" class="cls-4" d="M60,230h10v10h-10v-10Z"/>
      </g>
      <path id="Rectangle_368" data-name="Rectangle 368" class="cls-3" d="M160,140h30v10h-30v-10Z"/>
      <path id="Rectangle_375" data-name="Rectangle 375" class="cls-3" d="M150,150h20v10h-20v-10Z"/>
      <path id="Rectangle_370" data-name="Rectangle 370" class="cls-3" d="M180,130h20v10h-20v-10Z"/>
      <path id="Rectangle_371" data-name="Rectangle 371" class="cls-3" d="M190,110h10v20h-10v-20Z"/>
      <path id="Rectangle_373" data-name="Rectangle 373" class="cls-3" d="M200,100h10v20h-10v-20Z"/>
      <path id="Rectangle_376" data-name="Rectangle 376" class="cls-2" d="M200,90h10v10h-10v-10Z"/>
      <path id="Rectangle_379" data-name="Rectangle 379" class="cls-5" d="M100,100h10v10h-10v-10Z"/>
      <path id="Rectangle_380" data-name="Rectangle 380" class="cls-5" d="M90,100h10v10h-10v-10Z"/>
      <path id="Rectangle_381" data-name="Rectangle 381" class="cls-5" d="M80,90h10v10h-10v-10Z"/>
      <path id="Rectangle_382" data-name="Rectangle 382" class="cls-5" d="M90,90h10v10h-10v-10Z"/>
      <path id="Rectangle_383" data-name="Rectangle 383" class="cls-5" d="M70,80h10v10h-10v-10Z"/>
      <path id="Rectangle_384" data-name="Rectangle 384" class="cls-5" d="M70,70h10v10h-10v-10Z"/>
      <path id="Rectangle_385" data-name="Rectangle 385" class="cls-5" d="M70,60h10v10h-10v-10Z"/>
      <path id="Rectangle_386" data-name="Rectangle 386" class="cls-5" d="M60,60h10v10h-10v-10Z"/>
      <path id="Rectangle_387" data-name="Rectangle 387" class="cls-5" d="M60,50h10v10h-10v-10Z"/>
      <path id="Rectangle_388" data-name="Rectangle 388" class="cls-9" d="M60,40h10v10h-10v-10Z"/>
      <path id="Rectangle_389" data-name="Rectangle 389" class="cls-5" d="M80,80h10v10h-10v-10Z"/>
      <g id="Group_43" data-name="Group 43">
        <path id="Rectangle_328" data-name="Rectangle 328" class="cls-1" d="M80,140h10v10h-10v-10Z"/>
        <path id="Rectangle_329" data-name="Rectangle 329" class="cls-8" d="M90,140h10v10h-10v-10Z"/>
        <path id="Rectangle_330" data-name="Rectangle 330" class="cls-8" d="M80,130h10v10h-10v-10Z"/>
        <path id="Rectangle_331" data-name="Rectangle 331" class="cls-8" d="M70,140h10v10h-10v-10Z"/>
        <path id="Rectangle_332" data-name="Rectangle 332" class="cls-8" d="M80,150h10v10h-10v-10Z"/>
      </g>
      <g id="Group_44" data-name="Group 44">
        <path id="Rectangle_328-2" data-name="Rectangle 328" class="cls-1" d="M60,170h10v10h-10v-10Z"/>
        <path id="Rectangle_329-2" data-name="Rectangle 329" class="cls-8" d="M70,170h10v10h-10v-10Z"/>
        <path id="Rectangle_330-2" data-name="Rectangle 330" class="cls-8" d="M60,160h10v10h-10v-10Z"/>
        <path id="Rectangle_331-2" data-name="Rectangle 331" class="cls-8" d="M50,170h10v10h-10v-10Z"/>
        <path id="Rectangle_332-2" data-name="Rectangle 332" class="cls-8" d="M60,180h10v10h-10v-10Z"/>
      </g>
      <g id="Group_45" data-name="Group 45">
        <path id="Rectangle_328-3" data-name="Rectangle 328" class="cls-1" d="M100,190h10v10h-10v-10Z"/>
        <path id="Rectangle_329-3" data-name="Rectangle 329" class="cls-8" d="M110,190h10v10h-10v-10Z"/>
        <path id="Rectangle_330-3" data-name="Rectangle 330" class="cls-8" d="M100,180h10v10h-10v-10Z"/>
        <path id="Rectangle_331-3" data-name="Rectangle 331" class="cls-8" d="M90,190h10v10h-10v-10Z"/>
        <path id="Rectangle_332-3" data-name="Rectangle 332" class="cls-8" d="M100,200h10v10h-10v-10Z"/>
      </g>
      <g id="Group_46" data-name="Group 46">
        <path id="Rectangle_328-4" data-name="Rectangle 328" class="cls-1" d="M70,210h10v10h-10v-10Z"/>
        <path id="Rectangle_329-4" data-name="Rectangle 329" class="cls-8" d="M80,210h10v10h-10v-10Z"/>
        <path id="Rectangle_330-4" data-name="Rectangle 330" class="cls-8" d="M70,200h10v10h-10v-10Z"/>
        <path id="Rectangle_331-4" data-name="Rectangle 331" class="cls-8" d="M60,210h10v10h-10v-10Z"/>
        <path id="Rectangle_332-4" data-name="Rectangle 332" class="cls-8" d="M70,220h10v10h-10v-10Z"/>
      </g>
    </g>
  </g>
</svg>