<?xml version="1.0" encoding="UTF-8"?>
<svg id="Layer_2" data-name="Layer 2" xmlns="http://www.w3.org/2000/svg" viewBox="0 0 240 110">
  <defs>
    <style>
      .cls-1, .cls-2, .cls-3, .cls-4, .cls-5, .cls-6 {
        stroke-width: 0px;
      }

      .cls-2 {
        fill: #604231;
      }

      .cls-3 {
        fill: #a49020;
      }

      .cls-4 {
        fill: #815c47;
      }

      .cls-5 {
        fill: #fff;
      }

      .cls-6 {
        fill: #e5d3a4;
      }
    </style>
  </defs>
  <g id="Coral_Reef" data-name="Coral Reef">
    <g id="hawksbill_sea_turtle" data-name="hawksbill sea turtle">
      <path id="Rectangle_84" data-name="Rectangle 84" class="cls-2" d="M40,30h180v50H40V30Z"/>
      <path id="Rectangle_98" data-name="Rectangle 98" class="cls-2" d="M50,20h150v10H50v-10Z"/>
      <path id="Rectangle_99" data-name="Rectangle 99" class="cls-2" d="M70,10h110v10h-110v-10Z"/>
      <path id="Rectangle_85" data-name="Rectangle 85" class="cls-6" d="M40,80h180v10H40v-10Z"/>
      <path id="Rectangle_100" data-name="Rectangle 100" class="cls-6" d="M40,70h30v10h-30v-10Z"/>
      <path id="Rectangle_101" data-name="Rectangle 101" class="cls-6" d="M200,70h20v10h-20v-10Z"/>
      <path id="Rectangle_90" data-name="Rectangle 90" class="cls-6" d="M60,90h130v10H60v-10Z"/>
      <path id="Rectangle_110" data-name="Rectangle 110" class="cls-6" d="M90,100h70v10h-70v-10Z"/>
      <path id="Rectangle_86" data-name="Rectangle 86" class="cls-3" d="M10,40h30v40H10v-40Z"/>
      <path id="Rectangle_108" data-name="Rectangle 108" class="cls-3" d="M20,80h20v10h-20v-10Z"/>
      <path id="Rectangle_109" data-name="Rectangle 109" class="cls-3" d="M10,90h20v10H10v-10Z"/>
      <path id="Rectangle_107" data-name="Rectangle 107" class="cls-3" d="M40,50h10v30h-10v-30Z"/>
      <path id="Rectangle_104" data-name="Rectangle 104" class="cls-3" d="M0,50h10v30H0v-30Z"/>
      <path id="Rectangle_87" data-name="Rectangle 87" class="cls-3" d="M70,60h30v30h-30v-30Z"/>
      <path id="Rectangle_92" data-name="Rectangle 92" class="cls-3" d="M90,70h30v20h-30v-20Z"/>
      <path id="Rectangle_93" data-name="Rectangle 93" class="cls-3" d="M120,90h10v10h-10v-10Z"/>
      <path id="Rectangle_95" data-name="Rectangle 95" class="cls-3" d="M60,60h10v10h-10v-10Z"/>
      <path id="Rectangle_94" data-name="Rectangle 94" class="cls-3" d="M100,90h20v10h-20v-10Z"/>
      <path id="Rectangle_88" data-name="Rectangle 88" class="cls-3" d="M160,70h20v20h-20v-20Z"/>
      <path id="Rectangle_102" data-name="Rectangle 102" class="cls-3" d="M150,70h20v10h-20v-10Z"/>
      <path id="Rectangle_96" data-name="Rectangle 96" class="cls-3" d="M170,80h20v20h-20v-20Z"/>
      <path id="Rectangle_97" data-name="Rectangle 97" class="cls-3" d="M190,90h10v10h-10v-10Z"/>
      <path id="Rectangle_89" data-name="Rectangle 89" class="cls-3" d="M220,60h10v20h-10v-20Z"/>
      <path id="Rectangle_103" data-name="Rectangle 103" class="cls-3" d="M230,50h10v20h-10v-20Z"/>
      <path id="Rectangle_105" data-name="Rectangle 105" class="cls-5" d="M10,50h20v20H10v-20Z"/>
      <path id="Rectangle_106" data-name="Rectangle 106" class="cls-1" d="M10,60h10v10h-10v-10Z"/>
      <path id="Rectangle_111" data-name="Rectangle 111" class="cls-4" d="M170,30h30v30h-30v-30Z"/>
      <path id="Rectangle_116" data-name="Rectangle 116" class="cls-4" d="M110,20h30v30h-30v-30Z"/>
      <path id="Rectangle_121" data-name="Rectangle 121" class="cls-4" d="M50,10h30v30h-30V10Z"/>
      <path id="Rectangle_125" data-name="Rectangle 125" class="cls-4" d="M50,10h30v30h-30V10Z"/>
      <path id="Rectangle_128" data-name="Rectangle 128" class="cls-4" d="M140,60h20v20h-20v-20Z"/>
      <path id="Rectangle_131" data-name="Rectangle 131" class="cls-4" d="M80,50h20v10h-20v-10Z"/>
      <path id="Rectangle_129" data-name="Rectangle 129" class="cls-4" d="M130,70h10v10h-10v-10Z"/>
      <path id="Rectangle_112" data-name="Rectangle 112" class="cls-4" d="M180,20h20v10h-20v-10Z"/>
      <path id="Rectangle_117" data-name="Rectangle 117" class="cls-4" d="M120,10h20v10h-20v-10Z"/>
      <path id="Rectangle_113" data-name="Rectangle 113" class="cls-4" d="M170,60h20v10h-20v-10Z"/>
      <path id="Rectangle_118" data-name="Rectangle 118" class="cls-4" d="M110,50h20v10h-20v-10Z"/>
      <path id="Rectangle_123" data-name="Rectangle 123" class="cls-4" d="M50,40h20v10h-20v-10Z"/>
      <path id="Rectangle_126" data-name="Rectangle 126" class="cls-4" d="M50,40h20v10h-20v-10Z"/>
      <path id="Rectangle_114" data-name="Rectangle 114" class="cls-4" d="M200,40h10v20h-10v-20Z"/>
      <path id="Rectangle_119" data-name="Rectangle 119" class="cls-4" d="M140,30h10v20h-10v-20Z"/>
      <path id="Rectangle_124" data-name="Rectangle 124" class="cls-4" d="M80,20h10v20h-10v-20Z"/>
      <path id="Rectangle_127" data-name="Rectangle 127" class="cls-4" d="M80,20h10v20h-10v-20Z"/>
      <path id="Rectangle_115" data-name="Rectangle 115" class="cls-4" d="M160,30h10v20h-10v-20Z"/>
      <path id="Rectangle_120" data-name="Rectangle 120" class="cls-4" d="M100,20h10v20h-10v-20Z"/>
      <path id="Rectangle_130" data-name="Rectangle 130" class="cls-2" d="M70,0h90v10h-90V0Z"/>
      <path id="Rectangle_132" data-name="Rectangle 132" class="cls-4" d="M90,0h20v10h-20V0Z"/>
      <path id="Rectangle_133" data-name="Rectangle 133" class="cls-4" d="M150,0h10v20h-10V0Z"/>
      <path id="Rectangle_134" data-name="Rectangle 134" class="cls-4" d="M160,10h10v10h-10v-10Z"/>
    </g>
  </g>
</svg>