<svg width="80" height="100" viewBox="0 0 80 100" fill="none" xmlns="http://www.w3.org/2000/svg">
<rect x="8" y="28" width="64" height="64" fill="#212121"/>
<rect x="12" y="56" width="8" height="8" fill="white"/>
<rect x="20" y="48" width="8" height="8" fill="white"/>
<rect x="28" y="40" width="8" height="8" fill="white"/>
<rect x="20" y="64" width="8" height="8" fill="white"/>
<rect x="28" y="72" width="8" height="8" fill="white"/>
<rect x="36" y="56" width="32" height="8" fill="white"/>
<rect x="8" y="20" width="64" height="8" fill="#3C3C3C"/>
<rect x="8" y="92" width="64" height="8" fill="#3C3C3C"/>
<rect y="28" width="8" height="64" fill="#3C3C3C"/>
<rect x="8" y="28" width="8" height="8" fill="#3C3C3C"/>
<rect x="64" y="28" width="8" height="8" fill="#3C3C3C"/>
<rect x="64" y="84" width="8" height="8" fill="#3C3C3C"/>
<rect x="8" y="84" width="8" height="8" fill="#3C3C3C"/>
<rect x="72" y="28" width="8" height="64" fill="#3C3C3C"/>
<rect x="16" width="8" height="20" fill="white"/>
<rect x="56" width="8" height="20" fill="white"/>
</svg>
