<svg width="187" height="87" viewBox="0 0 187 87" fill="none" xmlns="http://www.w3.org/2000/svg">
<path d="M0 33.5297V4.78996H4.78996V9.57992H19.1598V4.78996H23.9498V33.5297H19.1598V14.3699H4.78996V33.5297H0ZM4.78996 4.78996V0H19.1598V4.78996H4.78996Z" fill="white"/>
<path d="M33.5297 33.5297V28.7398H43.1096V33.5297H33.5297ZM47.8996 33.5297V28.7398H52.6895V33.5297H47.8996ZM43.1096 28.7398V23.9498H47.8996V28.7398H43.1096ZM28.7398 28.7398V4.78996H33.5297V28.7398H28.7398ZM47.8996 23.9498V4.78996H52.6895V23.9498H47.8996ZM33.5297 4.78996V0H47.8996V4.78996H33.5297Z" fill="white"/>
<path d="M62.2695 33.5297V28.7398H76.6393V33.5297H62.2695ZM57.4795 28.7398V0H62.2695V28.7398H57.4795ZM76.6393 28.7398V0H81.4293V28.7398H76.6393Z" fill="white"/>
<path d="M86.2193 33.5297V4.78996H91.0092V9.57992H105.379V4.78996H110.169V33.5297H105.379V14.3699H91.0092V33.5297H86.2193ZM91.0092 4.78996V0H105.379V4.78996H91.0092Z" fill="white"/>
<path d="M124.539 33.5297V4.78996H114.959V0H138.909V4.78996H129.329V33.5297H124.539Z" fill="white"/>
<path d="M143.699 33.5297V28.7398H148.489V4.78996H143.699V0H158.069V4.78996H153.279V28.7398H158.069V33.5297H143.699Z" fill="white"/>
<path d="M167.649 33.5297V28.7398H182.018V33.5297H167.649ZM182.018 28.7398V23.9498H186.808V28.7398H182.018ZM162.859 28.7398V4.78996H167.649V28.7398H162.859ZM182.018 9.57992V4.78996H186.808V9.57992H182.018ZM167.649 4.78996V0H182.018V4.78996H167.649Z" fill="white"/>
<path d="M0 86.4109V52.8811H4.78996V62.4611H19.1598V52.8811H23.9498V86.4109H19.1598V67.251H4.78996V86.4109H0Z" fill="white"/>
<path d="M33.5297 86.4109V81.6209H47.8996V86.4109H33.5297ZM28.7398 81.6209V52.8811H33.5297V81.6209H28.7398ZM47.8996 81.6209V52.8811H52.6895V81.6209H47.8996Z" fill="white"/>
<path d="M67.0594 67.251V62.4611H71.8494V67.251H67.0594ZM57.4795 86.4109V52.8811H62.2695V57.6711H67.0594V62.4611H62.2695V86.4109H57.4795ZM76.6393 86.4109V72.041H71.8494V67.251H76.6393V52.8811H81.4293V86.4109H76.6393Z" fill="white"/>
<path d="M95.7992 86.4109V57.6711H86.2193V52.8811H110.169V57.6711H100.589V86.4109H95.7992Z" fill="white"/>
<rect x="166.978" y="51.54" width="14.7531" height="8.43033" fill="white"/>
<rect x="162.763" y="53.6475" width="4.21516" height="4.21516" fill="white"/>
<rect x="161.709" y="54.7014" width="1.05379" height="2.10758" fill="white"/>
<rect x="181.731" y="49.4324" width="3.16137" height="4.21516" fill="white"/>
<rect x="184.893" y="48.3786" width="2.10758" height="3.16137" fill="white"/>
<rect x="181.731" y="57.8627" width="3.16137" height="4.21516" fill="white"/>
<rect x="184.893" y="59.9703" width="2.10758" height="3.16137" fill="white"/>
<rect x="169.086" y="59.9703" width="7.37654" height="2.10758" fill="white"/>
<rect x="169.086" y="57.8627" width="5.26895" height="2.10758" fill="white"/>
<rect x="169.086" y="49.4324" width="7.37654" height="2.10758" fill="white"/>
<rect x="169.086" y="51.54" width="5.26895" height="2.10758" fill="white"/>
<rect x="172.247" y="47.3248" width="6.32275" height="2.10758" fill="white"/>
<rect x="172.247" y="62.0779" width="6.32275" height="2.10758" fill="white"/>
<rect x="175.408" y="64.1854" width="5.26895" height="1.05379" fill="white"/>
<rect x="175.408" y="46.271" width="5.26895" height="1.05379" fill="white"/>
<rect x="168.032" y="54.7014" width="2.10758" height="2.10758" fill="black"/>
<rect width="26.8238" height="15.3279" transform="matrix(-1 0 0 1 152.129 61.3115)" fill="white"/>
<rect width="7.66393" height="7.66393" transform="matrix(-1 0 0 1 159.793 65.1434)" fill="white"/>
<rect width="1.91598" height="3.83197" transform="matrix(-1 0 0 1 161.709 67.0594)" fill="white"/>
<rect width="5.74795" height="7.66393" transform="matrix(-1 0 0 1 125.306 57.4795)" fill="white"/>
<rect width="3.83197" height="5.74795" transform="matrix(-1 0 0 1 119.558 55.5635)" fill="white"/>
<rect width="5.74795" height="7.66393" transform="matrix(-1 0 0 1 125.306 72.8074)" fill="white"/>
<rect width="3.83197" height="5.74795" transform="matrix(-1 0 0 1 119.558 76.6393)" fill="white"/>
<rect width="13.4119" height="3.83197" transform="matrix(-1 0 0 1 148.297 76.6393)" fill="white"/>
<rect width="9.57992" height="3.83197" transform="matrix(-1 0 0 1 148.297 72.8074)" fill="white"/>
<rect width="13.4119" height="3.83197" transform="matrix(-1 0 0 1 148.297 57.4795)" fill="white"/>
<rect width="9.57992" height="3.83197" transform="matrix(-1 0 0 1 148.297 61.3115)" fill="white"/>
<rect width="11.4959" height="3.83197" transform="matrix(-1 0 0 1 142.549 53.6475)" fill="white"/>
<rect width="11.4959" height="3.83197" transform="matrix(-1 0 0 1 142.549 80.4713)" fill="white"/>
<rect width="9.57992" height="1.91598" transform="matrix(-1 0 0 1 136.801 84.3033)" fill="white"/>
<rect width="9.57992" height="1.91598" transform="matrix(-1 0 0 1 136.801 51.7316)" fill="white"/>
<rect width="3.83197" height="3.83197" transform="matrix(-1 0 0 1 150.213 67.0594)" fill="black"/>
</svg>
