<svg width="152" height="100" viewBox="0 0 152 100" fill="none" xmlns="http://www.w3.org/2000/svg">
<rect x="8" y="28" width="144" height="64" fill="#212121"/>
<rect x="8" y="20" width="136" height="8" fill="#3C3C3C"/>
<rect x="8" y="92" width="136" height="8" fill="#3C3C3C"/>
<rect y="28" width="8" height="64" fill="#3C3C3C"/>
<rect x="8" y="28" width="8" height="8" fill="#3C3C3C"/>
<rect x="136" y="28" width="8" height="8" fill="#3C3C3C"/>
<rect x="136" y="84" width="8" height="8" fill="#3C3C3C"/>
<rect x="8" y="84" width="8" height="8" fill="#3C3C3C"/>
<rect x="144" y="28" width="8" height="64" fill="#3C3C3C"/>
<rect x="20.7998" y="40.8" width="38.4" height="38.4" fill="#F1B033"/>
<rect x="59.2002" y="45.6" width="4.8" height="28.8" fill="#FFD37F"/>
<rect x="52" y="40.8" width="7.2" height="7.2" fill="#FFD37F"/>
<rect x="52" y="72" width="7.2" height="7.2" fill="#FFD37F"/>
<rect x="20.7998" y="72" width="7.2" height="7.2" fill="#FFD37F"/>
<rect x="20.7998" y="40.8" width="7.2" height="7.2" fill="#FFD37F"/>
<rect x="16" y="45.6" width="4.8" height="28.8" fill="#FFD37F"/>
<rect x="25.5996" y="36" width="28.8" height="4.8" fill="#FFD37F"/>
<rect x="25.5996" y="79.2" width="28.8" height="4.8" fill="#FFD37F"/>
<rect x="40" y="64.8" width="2.4" height="14.4" fill="#7F5E1E"/>
<rect x="42.4004" y="60" width="2.4" height="16.8" fill="#7F5E1E"/>
<rect x="37.5996" y="52.8" width="4.8" height="12" fill="#7F5E1E"/>
<rect x="40" y="50.4" width="2.4" height="2.4" fill="#7F5E1E"/>
<rect x="30.4004" y="48" width="19.2" height="2.4" fill="#7F5E1E"/>
<rect x="25.5996" y="50.4" width="14.4" height="2.4" fill="#7F5E1E"/>
<rect x="35.2002" y="45.6" width="9.6" height="2.4" fill="#7F5E1E"/>
<rect x="44.7998" y="50.4" width="9.6" height="2.4" fill="#7F5E1E"/>
<rect x="47.2002" y="52.8" width="9.6" height="2.4" fill="#7F5E1E"/>
<rect x="23.2002" y="52.8" width="9.6" height="2.4" fill="#7F5E1E"/>
<rect x="16" width="8" height="20" fill="white"/>
<rect x="128" width="8" height="20" fill="white"/>
</svg>
