<?xml version="1.0" encoding="UTF-8"?>
<svg id="Layer_2" data-name="Layer 2" xmlns="http://www.w3.org/2000/svg" viewBox="0 0 60 52.5">
  <defs>
    <style>
      .cls-1, .cls-2, .cls-3, .cls-4 {
        stroke-width: 0px;
      }

      .cls-2 {
        fill: #777458;
      }

      .cls-3 {
        fill: #5e5b40;
      }

      .cls-4 {
        fill: #a6a27c;
      }
    </style>
  </defs>
  <g id="Layer_1-2" data-name="Layer 1">
    <g id="southern_toad" data-name="southern toad">
      <path id="Rectangle_2042" data-name="Rectangle 2042" class="cls-2" d="m22.5,10h22.5v27.5h-22.5V10Z"/>
      <path id="Rectangle_2055" data-name="Rectangle 2055" class="cls-2" d="m45,17.5h10v27.5h-10v-27.5Z"/>
      <path id="Rectangle_2056" data-name="Rectangle 2056" class="cls-2" d="m45,15h7.5v2.5h-7.5v-2.5Z"/>
      <path id="Rectangle_2057" data-name="Rectangle 2057" class="cls-2" d="m57.5,20h-2.5v22.5h2.5v-22.5Z"/>
      <path id="Rectangle_2058" data-name="Rectangle 2058" class="cls-2" d="m60,22.5h-2.5v15h2.5v-15Z"/>
      <path id="Rectangle_2059" data-name="Rectangle 2059" class="cls-2" d="m47.5,12.5h-2.5v2.5h2.5v-2.5Z"/>
      <path id="Rectangle_2060" data-name="Rectangle 2060" class="cls-2" d="m45,37.5h-10v12.5h10v-12.5Z"/>
      <path id="Rectangle_2061" data-name="Rectangle 2061" class="cls-2" d="m35,37.5h-12.5v2.5h12.5v-2.5Z"/>
      <path id="Rectangle_2062" data-name="Rectangle 2062" class="cls-2" d="m35,40h-7.5v2.5h7.5v-2.5Z"/>
      <path id="Rectangle_2063" data-name="Rectangle 2063" class="cls-2" d="m52.5,45h-7.5v2.5h7.5v-2.5Z"/>
      <path id="Rectangle_2064" data-name="Rectangle 2064" class="cls-2" d="m47.5,47.5h-2.5v2.5h2.5v-2.5Z"/>
      <path id="Rectangle_2065" data-name="Rectangle 2065" class="cls-2" d="m40,50h-5v2.5h5v-2.5Z"/>
      <path id="Rectangle_2066" data-name="Rectangle 2066" class="cls-2" d="m35,47.5h-7.5v2.5h7.5v-2.5Z"/>
      <path id="Rectangle_2067" data-name="Rectangle 2067" class="cls-2" d="m35,45h-2.5v2.5h2.5v-2.5Z"/>
      <path id="Rectangle_2068" data-name="Rectangle 2068" class="cls-2" d="m25,42.5h-10v2.5h10v-2.5Z"/>
      <path id="Rectangle_2072" data-name="Rectangle 2072" class="cls-2" d="m25,45h-2.5v2.5h2.5v-2.5Z"/>
      <path id="Rectangle_2069" data-name="Rectangle 2069" class="cls-2" d="m22.5,40h-10v2.5h10v-2.5Z"/>
      <path id="Rectangle_2070" data-name="Rectangle 2070" class="cls-2" d="m22.5,37.5H7.5v2.5h15v-2.5Z"/>
      <path id="Rectangle_2071" data-name="Rectangle 2071" class="cls-2" d="m10,35h7.5v2.5h-7.5v-2.5Z"/>
      <path id="Rectangle_2090" data-name="Rectangle 2090" class="cls-2" d="m5,32.5h7.5v2.5h-7.5v-2.5Z"/>
      <path id="Rectangle_2043" data-name="Rectangle 2043" class="cls-2" d="m15,5h7.5v20h-7.5V5Z"/>
      <path id="Rectangle_2052" data-name="Rectangle 2052" class="cls-2" d="m25,5h-2.5v5h2.5v-5Z"/>
      <path id="Rectangle_2053" data-name="Rectangle 2053" class="cls-2" d="m40,7.5h-15v2.5h15v-2.5Z"/>
      <path id="Rectangle_2044" data-name="Rectangle 2044" class="cls-2" d="m17.5,25h5v12.5h-5v-12.5Z"/>
      <path id="Rectangle_2045" data-name="Rectangle 2045" class="cls-2" d="m15,25h2.5v5h-2.5v-5Z"/>
      <path id="Rectangle_2046" data-name="Rectangle 2046" class="cls-2" d="m10,5h5v20h-5V5Z"/>
      <path id="Rectangle_2047" data-name="Rectangle 2047" class="cls-2" d="m2.5,5h7.5v12.5H2.5V5Z"/>
      <path id="Rectangle_2054" data-name="Rectangle 2054" class="cls-2" d="m0,7.5h2.5v7.5H0v-7.5Z"/>
      <path id="Rectangle_2050" data-name="Rectangle 2050" class="cls-2" d="m7.5,2.5h12.5v2.5H7.5v-2.5Z"/>
      <path id="Rectangle_2051" data-name="Rectangle 2051" class="cls-2" d="m10,0h7.5v2.5h-7.5V0Z"/>
      <path id="Rectangle_2048" data-name="Rectangle 2048" class="cls-2" d="m5,17.5h5v2.5h-5v-2.5Z"/>
      <path id="Rectangle_2049" data-name="Rectangle 2049" class="cls-2" d="m7.5,22.5h2.5v-2.5h-2.5v2.5Z"/>
      <path id="Rectangle_2073" data-name="Rectangle 2073" class="cls-1" d="m7.5,10h5v2.5h-5v-2.5Z"/>
      <path id="Rectangle_2074" data-name="Rectangle 2074" class="cls-1" d="m10,12.5h2.5v2.5h-2.5v-2.5Z"/>
      <path id="Rectangle_2076" data-name="Rectangle 2076" class="cls-4" d="m17.5,12.5h5v2.5h-5v-2.5Z"/>
      <path id="Rectangle_2079" data-name="Rectangle 2079" class="cls-4" d="m22.5,15h7.5v2.5h-7.5v-2.5Z"/>
      <path id="Rectangle_2081" data-name="Rectangle 2081" class="cls-4" d="m30,17.5h5v2.5h-5v-2.5Z"/>
      <path id="Rectangle_2082" data-name="Rectangle 2082" class="cls-4" d="m35,20h5v2.5h-5v-2.5Z"/>
      <path id="Rectangle_2083" data-name="Rectangle 2083" class="cls-4" d="m40,22.5h5v2.5h-5v-2.5Z"/>
      <path id="Rectangle_2084" data-name="Rectangle 2084" class="cls-3" d="m20,40h2.5v2.5h-2.5v-2.5Z"/>
      <path id="Rectangle_2089" data-name="Rectangle 2089" class="cls-3" d="m22.5,42.5h2.5v5h-2.5v-5Z"/>
      <path id="Rectangle_2085" data-name="Rectangle 2085" class="cls-3" d="m22.5,37.5h2.5v2.5h-2.5v-2.5Z"/>
      <path id="Rectangle_2086" data-name="Rectangle 2086" class="cls-3" d="m25,35h2.5v2.5h-2.5v-2.5Z"/>
      <path id="Rectangle_2087" data-name="Rectangle 2087" class="cls-3" d="m25,30h2.5v2.5h-2.5v-2.5Z"/>
      <path id="Rectangle_2122" data-name="Rectangle 2122" class="cls-3" d="m22.5,27.5h2.5v2.5h-2.5v-2.5Z"/>
      <path id="Rectangle_2107" data-name="Rectangle 2107" class="cls-3" d="m27.5,32.5h2.5v2.5h-2.5v-2.5Z"/>
      <path id="Rectangle_2091" data-name="Rectangle 2091" class="cls-3" d="m45,37.5h5v2.5h-5v-2.5Z"/>
      <path id="Rectangle_2115" data-name="Rectangle 2115" class="cls-3" d="m50,35h5v2.5h-5v-2.5Z"/>
      <path id="Rectangle_2092" data-name="Rectangle 2092" class="cls-3" d="m55,37.5h2.5v5h-2.5v-5Z"/>
      <path id="Rectangle_2094" data-name="Rectangle 2094" class="cls-3" d="m35,37.5h2.5v7.5h-2.5v-7.5Z"/>
      <path id="Rectangle_2112" data-name="Rectangle 2112" class="cls-3" d="m40,30h5v2.5h-5v-2.5Z"/>
      <path id="Rectangle_2120" data-name="Rectangle 2120" class="cls-3" d="m45,27.5h7.5v2.5h-7.5v-2.5Z"/>
      <path id="Rectangle_2121" data-name="Rectangle 2121" class="cls-3" d="m52.5,30h5v2.5h-5v-2.5Z"/>
      <path id="Rectangle_2117" data-name="Rectangle 2117" class="cls-3" d="m37.5,32.5h2.5v5h-2.5v-5Z"/>
      <path id="Rectangle_2114" data-name="Rectangle 2114" class="cls-3" d="m52.5,42.5h2.5v2.5h-2.5v-2.5Z"/>
      <path id="Rectangle_2097" data-name="Rectangle 2097" class="cls-3" d="m32.5,45h2.5v2.5h-2.5v-2.5Z"/>
      <path id="Rectangle_2098" data-name="Rectangle 2098" class="cls-3" d="m27.5,47.5h5v2.5h-5v-2.5Z"/>
      <path id="Rectangle_2099" data-name="Rectangle 2099" class="cls-3" d="m32.5,50h7.5v2.5h-7.5v-2.5Z"/>
      <path id="Rectangle_2104" data-name="Rectangle 2104" class="cls-3" d="m40,47.5h7.5v2.5h-7.5v-2.5Z"/>
      <path id="Rectangle_2105" data-name="Rectangle 2105" class="cls-3" d="m47.5,45h5v2.5h-5v-2.5Z"/>
    </g>
  </g>
</svg>