<?xml version="1.0" encoding="UTF-8"?>
<svg id="Layer_2" data-name="Layer 2" xmlns="http://www.w3.org/2000/svg" viewBox="0 0 48 50">
  <defs>
    <style>
      .cls-1 {
        fill: #462626;
      }

      .cls-1, .cls-2 {
        stroke-width: 0px;
      }

      .cls-2 {
        fill: #ff4b4b;
      }
    </style>
  </defs>
  <g id="Layer_1-2" data-name="Layer 1">
    <g id="salmon_eggs" data-name="salmon eggs">
      <g id="salmon_eggs-2" data-name="salmon eggs">
        <g id="Group_238" data-name="Group 238">
          <path id="Rectangle_2232" data-name="Rectangle 2232" class="cls-2" d="m4,27h5v5h-5v-5Z"/>
          <path id="Rectangle_2233" data-name="Rectangle 2233" class="cls-1" d="m8,28h-2v2h2v-2Z"/>
          <path id="Rectangle_2234" data-name="Rectangle 2234" class="cls-2" d="m5,26h3v1h-3v-1Z"/>
          <path id="Rectangle_2235" data-name="Rectangle 2235" class="cls-2" d="m5,32h3v1h-3v-1Z"/>
          <path id="Rectangle_2236" data-name="Rectangle 2236" class="cls-2" d="m10,28v3h-1v-3h1Z"/>
          <path id="Rectangle_2237" data-name="Rectangle 2237" class="cls-2" d="m4,28v3h-1v-3h1Z"/>
        </g>
        <g id="Group_239" data-name="Group 239">
          <path id="Rectangle_2232-2" data-name="Rectangle 2232" class="cls-2" d="m16,31h-5v5h5v-5Z"/>
          <path id="Rectangle_2233-2" data-name="Rectangle 2233" class="cls-1" d="m12,32h2v2h-2v-2Z"/>
          <path id="Rectangle_2234-2" data-name="Rectangle 2234" class="cls-2" d="m15,30h-3v1h3v-1Z"/>
          <path id="Rectangle_2235-2" data-name="Rectangle 2235" class="cls-2" d="m15,36h-3v1h3v-1Z"/>
          <path id="Rectangle_2236-2" data-name="Rectangle 2236" class="cls-2" d="m10,32v3h1v-3h-1Z"/>
          <path id="Rectangle_2237-2" data-name="Rectangle 2237" class="cls-2" d="m16,32v3h1v-3h-1Z"/>
        </g>
        <g id="Group_240" data-name="Group 240">
          <path id="Rectangle_2232-3" data-name="Rectangle 2232" class="cls-2" d="m23,27h-5v5h5v-5Z"/>
          <path id="Rectangle_2233-3" data-name="Rectangle 2233" class="cls-1" d="m19,28h2v2h-2v-2Z"/>
          <path id="Rectangle_2234-3" data-name="Rectangle 2234" class="cls-2" d="m22,26h-3v1h3v-1Z"/>
          <path id="Rectangle_2235-3" data-name="Rectangle 2235" class="cls-2" d="m22,32h-3v1h3v-1Z"/>
          <path id="Rectangle_2236-3" data-name="Rectangle 2236" class="cls-2" d="m17,28v3h1v-3h-1Z"/>
          <path id="Rectangle_2237-3" data-name="Rectangle 2237" class="cls-2" d="m23,28v3h1v-3h-1Z"/>
        </g>
        <g id="Group_241" data-name="Group 241">
          <path id="Rectangle_2232-4" data-name="Rectangle 2232" class="cls-2" d="m24,35v5h-5v-5h5Z"/>
          <path id="Rectangle_2233-4" data-name="Rectangle 2233" class="cls-1" d="m23,39v-2h-2v2h2Z"/>
          <path id="Rectangle_2234-4" data-name="Rectangle 2234" class="cls-2" d="m25,36v3h-1v-3h1Z"/>
          <path id="Rectangle_2235-4" data-name="Rectangle 2235" class="cls-2" d="m19,36v3h-1v-3h1Z"/>
          <path id="Rectangle_2236-4" data-name="Rectangle 2236" class="cls-2" d="m23,41h-3v-1h3v1Z"/>
          <path id="Rectangle_2237-4" data-name="Rectangle 2237" class="cls-2" d="m23,35h-3v-1h3v1Z"/>
        </g>
        <g id="Group_242" data-name="Group 242">
          <path id="Rectangle_2232-5" data-name="Rectangle 2232" class="cls-2" d="m18,40v5h-5v-5h5Z"/>
          <path id="Rectangle_2233-5" data-name="Rectangle 2233" class="cls-1" d="m17,44v-2h-2v2h2Z"/>
          <path id="Rectangle_2234-5" data-name="Rectangle 2234" class="cls-2" d="m19,41v3h-1v-3h1Z"/>
          <path id="Rectangle_2235-5" data-name="Rectangle 2235" class="cls-2" d="m13,41v3h-1v-3h1Z"/>
          <path id="Rectangle_2236-5" data-name="Rectangle 2236" class="cls-2" d="m17,46h-3v-1h3v1Z"/>
          <path id="Rectangle_2237-5" data-name="Rectangle 2237" class="cls-2" d="m17,40h-3v-1h3v1Z"/>
        </g>
        <g id="Group_243" data-name="Group 243">
          <path id="Rectangle_2232-6" data-name="Rectangle 2232" class="cls-2" d="m9,36v5h-5v-5h5Z"/>
          <path id="Rectangle_2233-6" data-name="Rectangle 2233" class="cls-1" d="m8,40v-2h-2v2h2Z"/>
          <path id="Rectangle_2234-6" data-name="Rectangle 2234" class="cls-2" d="m10,37v3h-1v-3h1Z"/>
          <path id="Rectangle_2235-6" data-name="Rectangle 2235" class="cls-2" d="m4,37v3h-1v-3h1Z"/>
          <path id="Rectangle_2236-6" data-name="Rectangle 2236" class="cls-2" d="m8,42h-3v-1h3v1Z"/>
          <path id="Rectangle_2237-6" data-name="Rectangle 2237" class="cls-2" d="m8,36h-3v-1h3v1Z"/>
        </g>
        <g id="Group_244" data-name="Group 244">
          <path id="Rectangle_2232-7" data-name="Rectangle 2232" class="cls-2" d="m11,44v5h-5v-5h5Z"/>
          <path id="Rectangle_2233-7" data-name="Rectangle 2233" class="cls-1" d="m10,48v-2h-2v2h2Z"/>
          <path id="Rectangle_2234-7" data-name="Rectangle 2234" class="cls-2" d="m12,45v3h-1v-3h1Z"/>
          <path id="Rectangle_2235-7" data-name="Rectangle 2235" class="cls-2" d="m6,45v3h-1v-3h1Z"/>
          <path id="Rectangle_2236-7" data-name="Rectangle 2236" class="cls-2" d="m10,50h-3v-1h3v1Z"/>
          <path id="Rectangle_2237-7" data-name="Rectangle 2237" class="cls-2" d="m10,44h-3v-1h3v1Z"/>
        </g>
        <g id="Group_245" data-name="Group 245">
          <path id="Rectangle_2232-8" data-name="Rectangle 2232" class="cls-2" d="m21,44v5h5v-5h-5Z"/>
          <path id="Rectangle_2233-8" data-name="Rectangle 2233" class="cls-1" d="m22,48v-2h2v2h-2Z"/>
          <path id="Rectangle_2234-8" data-name="Rectangle 2234" class="cls-2" d="m20,45v3h1v-3h-1Z"/>
          <path id="Rectangle_2235-8" data-name="Rectangle 2235" class="cls-2" d="m26,45v3h1v-3h-1Z"/>
          <path id="Rectangle_2236-8" data-name="Rectangle 2236" class="cls-2" d="m22,50h3v-1h-3v1Z"/>
          <path id="Rectangle_2237-8" data-name="Rectangle 2237" class="cls-2" d="m22,44h3v-1h-3v1Z"/>
        </g>
      </g>
      <g id="salmon_eggs-3" data-name="salmon eggs">
        <g id="Group_238-2" data-name="Group 238">
          <path id="Rectangle_2232-9" data-name="Rectangle 2232" class="cls-2" d="m28,15h5v5h-5v-5Z"/>
          <path id="Rectangle_2233-9" data-name="Rectangle 2233" class="cls-1" d="m32,16h-2v2h2v-2Z"/>
          <path id="Rectangle_2234-9" data-name="Rectangle 2234" class="cls-2" d="m29,14h3v1h-3v-1Z"/>
          <path id="Rectangle_2235-9" data-name="Rectangle 2235" class="cls-2" d="m29,20h3v1h-3v-1Z"/>
          <path id="Rectangle_2236-9" data-name="Rectangle 2236" class="cls-2" d="m34,16v3h-1v-3h1Z"/>
          <path id="Rectangle_2237-9" data-name="Rectangle 2237" class="cls-2" d="m28,16v3h-1v-3h1Z"/>
        </g>
        <g id="Group_239-2" data-name="Group 239">
          <path id="Rectangle_2232-10" data-name="Rectangle 2232" class="cls-2" d="m40,19h-5v5h5v-5Z"/>
          <path id="Rectangle_2233-10" data-name="Rectangle 2233" class="cls-1" d="m36,20h2v2h-2v-2Z"/>
          <path id="Rectangle_2234-10" data-name="Rectangle 2234" class="cls-2" d="m39,18h-3v1h3v-1Z"/>
          <path id="Rectangle_2235-10" data-name="Rectangle 2235" class="cls-2" d="m39,24h-3v1h3v-1Z"/>
          <path id="Rectangle_2236-10" data-name="Rectangle 2236" class="cls-2" d="m34,20v3h1v-3h-1Z"/>
          <path id="Rectangle_2237-10" data-name="Rectangle 2237" class="cls-2" d="m40,20v3h1v-3h-1Z"/>
        </g>
        <g id="Group_240-2" data-name="Group 240">
          <path id="Rectangle_2232-11" data-name="Rectangle 2232" class="cls-2" d="m47,15h-5v5h5v-5Z"/>
          <path id="Rectangle_2233-11" data-name="Rectangle 2233" class="cls-1" d="m43,16h2v2h-2v-2Z"/>
          <path id="Rectangle_2234-11" data-name="Rectangle 2234" class="cls-2" d="m46,14h-3v1h3v-1Z"/>
          <path id="Rectangle_2235-11" data-name="Rectangle 2235" class="cls-2" d="m46,20h-3v1h3v-1Z"/>
          <path id="Rectangle_2236-11" data-name="Rectangle 2236" class="cls-2" d="m41,16v3h1v-3h-1Z"/>
          <path id="Rectangle_2237-11" data-name="Rectangle 2237" class="cls-2" d="m47,16v3h1v-3h-1Z"/>
        </g>
        <g id="Group_242-2" data-name="Group 242">
          <path id="Rectangle_2232-12" data-name="Rectangle 2232" class="cls-2" d="m42,28v5h-5v-5h5Z"/>
          <path id="Rectangle_2233-12" data-name="Rectangle 2233" class="cls-1" d="m41,32v-2h-2v2h2Z"/>
          <path id="Rectangle_2234-12" data-name="Rectangle 2234" class="cls-2" d="m43,29v3h-1v-3h1Z"/>
          <path id="Rectangle_2235-12" data-name="Rectangle 2235" class="cls-2" d="m37,29v3h-1v-3h1Z"/>
          <path id="Rectangle_2236-12" data-name="Rectangle 2236" class="cls-2" d="m41,34h-3v-1h3v1Z"/>
          <path id="Rectangle_2237-12" data-name="Rectangle 2237" class="cls-2" d="m41,28h-3v-1h3v1Z"/>
        </g>
        <g id="Group_243-2" data-name="Group 243">
          <path id="Rectangle_2232-13" data-name="Rectangle 2232" class="cls-2" d="m33,24v5h-5v-5h5Z"/>
          <path id="Rectangle_2233-13" data-name="Rectangle 2233" class="cls-1" d="m32,28v-2h-2v2h2Z"/>
          <path id="Rectangle_2234-13" data-name="Rectangle 2234" class="cls-2" d="m34,25v3h-1v-3h1Z"/>
          <path id="Rectangle_2235-13" data-name="Rectangle 2235" class="cls-2" d="m28,25v3h-1v-3h1Z"/>
          <path id="Rectangle_2236-13" data-name="Rectangle 2236" class="cls-2" d="m32,30h-3v-1h3v1Z"/>
          <path id="Rectangle_2237-13" data-name="Rectangle 2237" class="cls-2" d="m32,24h-3v-1h3v1Z"/>
        </g>
        <g id="Group_244-2" data-name="Group 244">
          <path id="Rectangle_2232-14" data-name="Rectangle 2232" class="cls-2" d="m35,32v5h-5v-5h5Z"/>
          <path id="Rectangle_2233-14" data-name="Rectangle 2233" class="cls-1" d="m34,36v-2h-2v2h2Z"/>
          <path id="Rectangle_2234-14" data-name="Rectangle 2234" class="cls-2" d="m36,33v3h-1v-3h1Z"/>
          <path id="Rectangle_2235-14" data-name="Rectangle 2235" class="cls-2" d="m30,33v3h-1v-3h1Z"/>
          <path id="Rectangle_2236-14" data-name="Rectangle 2236" class="cls-2" d="m34,38h-3v-1h3v1Z"/>
          <path id="Rectangle_2237-14" data-name="Rectangle 2237" class="cls-2" d="m34,32h-3v-1h3v1Z"/>
        </g>
      </g>
      <g id="salmon_eggs-4" data-name="salmon eggs">
        <g id="Group_239-3" data-name="Group 239">
          <path id="Rectangle_2232-15" data-name="Rectangle 2232" class="cls-2" d="m13,5h-5v5h5v-5Z"/>
          <path id="Rectangle_2233-15" data-name="Rectangle 2233" class="cls-1" d="m9,6h2v2h-2v-2Z"/>
          <path id="Rectangle_2234-15" data-name="Rectangle 2234" class="cls-2" d="m12,4h-3v1h3v-1Z"/>
          <path id="Rectangle_2235-15" data-name="Rectangle 2235" class="cls-2" d="m12,10h-3v1h3v-1Z"/>
          <path id="Rectangle_2236-15" data-name="Rectangle 2236" class="cls-2" d="m7,6v3h1v-3h-1Z"/>
          <path id="Rectangle_2237-15" data-name="Rectangle 2237" class="cls-2" d="m13,6v3h1v-3h-1Z"/>
        </g>
        <g id="Group_240-3" data-name="Group 240">
          <path id="Rectangle_2232-16" data-name="Rectangle 2232" class="cls-2" d="m20,1h-5v5h5V1Z"/>
          <path id="Rectangle_2233-16" data-name="Rectangle 2233" class="cls-1" d="m16,2h2v2h-2v-2Z"/>
          <path id="Rectangle_2234-16" data-name="Rectangle 2234" class="cls-2" d="m19,0h-3v1h3V0Z"/>
          <path id="Rectangle_2235-16" data-name="Rectangle 2235" class="cls-2" d="m19,6h-3v1h3v-1Z"/>
          <path id="Rectangle_2236-16" data-name="Rectangle 2236" class="cls-2" d="m14,2v3h1v-3h-1Z"/>
          <path id="Rectangle_2237-16" data-name="Rectangle 2237" class="cls-2" d="m20,2v3h1v-3h-1Z"/>
        </g>
        <g id="Group_241-2" data-name="Group 241">
          <path id="Rectangle_2232-17" data-name="Rectangle 2232" class="cls-2" d="m21,9v5h-5v-5h5Z"/>
          <path id="Rectangle_2233-17" data-name="Rectangle 2233" class="cls-1" d="m20,13v-2h-2v2h2Z"/>
          <path id="Rectangle_2234-17" data-name="Rectangle 2234" class="cls-2" d="m22,10v3h-1v-3h1Z"/>
          <path id="Rectangle_2235-17" data-name="Rectangle 2235" class="cls-2" d="m16,10v3h-1v-3h1Z"/>
          <path id="Rectangle_2236-17" data-name="Rectangle 2236" class="cls-2" d="m20,15h-3v-1h3v1Z"/>
          <path id="Rectangle_2237-17" data-name="Rectangle 2237" class="cls-2" d="m20,9h-3v-1h3v1Z"/>
        </g>
        <g id="Group_242-3" data-name="Group 242">
          <path id="Rectangle_2232-18" data-name="Rectangle 2232" class="cls-2" d="m15,14v5h-5v-5h5Z"/>
          <path id="Rectangle_2233-18" data-name="Rectangle 2233" class="cls-1" d="m14,18v-2h-2v2h2Z"/>
          <path id="Rectangle_2234-18" data-name="Rectangle 2234" class="cls-2" d="m16,15v3h-1v-3h1Z"/>
          <path id="Rectangle_2235-18" data-name="Rectangle 2235" class="cls-2" d="m10,15v3h-1v-3h1Z"/>
          <path id="Rectangle_2236-18" data-name="Rectangle 2236" class="cls-2" d="m14,20h-3v-1h3v1Z"/>
          <path id="Rectangle_2237-18" data-name="Rectangle 2237" class="cls-2" d="m14,14h-3v-1h3v1Z"/>
        </g>
        <g id="Group_243-3" data-name="Group 243">
          <path id="Rectangle_2232-19" data-name="Rectangle 2232" class="cls-2" d="m6,10v5H1v-5h5Z"/>
          <path id="Rectangle_2233-19" data-name="Rectangle 2233" class="cls-1" d="m5,14v-2h-2v2h2Z"/>
          <path id="Rectangle_2234-19" data-name="Rectangle 2234" class="cls-2" d="m7,11v3h-1v-3h1Z"/>
          <path id="Rectangle_2235-19" data-name="Rectangle 2235" class="cls-2" d="m1,11v3H0v-3h1Z"/>
          <path id="Rectangle_2236-19" data-name="Rectangle 2236" class="cls-2" d="m5,16h-3v-1h3v1Z"/>
          <path id="Rectangle_2237-19" data-name="Rectangle 2237" class="cls-2" d="m5,10h-3v-1h3v1Z"/>
        </g>
        <g id="Group_244-3" data-name="Group 244">
          <path id="Rectangle_2232-20" data-name="Rectangle 2232" class="cls-2" d="m8,18v5H3v-5h5Z"/>
          <path id="Rectangle_2233-20" data-name="Rectangle 2233" class="cls-1" d="m7,22v-2h-2v2h2Z"/>
          <path id="Rectangle_2234-20" data-name="Rectangle 2234" class="cls-2" d="m9,19v3h-1v-3h1Z"/>
          <path id="Rectangle_2235-20" data-name="Rectangle 2235" class="cls-2" d="m3,19v3h-1v-3h1Z"/>
          <path id="Rectangle_2236-20" data-name="Rectangle 2236" class="cls-2" d="m7,24h-3v-1h3v1Z"/>
          <path id="Rectangle_2237-20" data-name="Rectangle 2237" class="cls-2" d="m7,18h-3v-1h3v1Z"/>
        </g>
        <g id="Group_245-2" data-name="Group 245">
          <path id="Rectangle_2232-21" data-name="Rectangle 2232" class="cls-2" d="m18,18v5h5v-5h-5Z"/>
          <path id="Rectangle_2233-21" data-name="Rectangle 2233" class="cls-1" d="m19,22v-2h2v2h-2Z"/>
          <path id="Rectangle_2234-21" data-name="Rectangle 2234" class="cls-2" d="m17,19v3h1v-3h-1Z"/>
          <path id="Rectangle_2235-21" data-name="Rectangle 2235" class="cls-2" d="m23,19v3h1v-3h-1Z"/>
          <path id="Rectangle_2236-21" data-name="Rectangle 2236" class="cls-2" d="m19,24h3v-1h-3v1Z"/>
          <path id="Rectangle_2237-21" data-name="Rectangle 2237" class="cls-2" d="m19,18h3v-1h-3v1Z"/>
        </g>
      </g>
    </g>
  </g>
</svg>